<?xml version="1.0" standalone="no"?>
<!DOCTYPE svg PUBLIC "-//W3C//DTD SVG 20010904//EN"
 "http://www.w3.org/TR/2001/REC-SVG-20010904/DTD/svg10.dtd">
<svg version="1.0" xmlns="http://www.w3.org/2000/svg"
 width="421.000000pt" height="421.000000pt" viewBox="0 0 421.000000 421.000000"
 preserveAspectRatio="xMidYMid meet">
<metadata>
Created by potrace 1.14, written by Peter Selinger 2001-2017
</metadata>
<g transform="translate(0.000000,421.000000) scale(0.100000,-0.100000)"
fill="#000000" stroke="none">
<path d="M2108 3655 c-2 -1 -39 -5 -83 -8 -156 -11 -325 -58 -409 -113 -46
-31 -106 -89 -106 -104 0 -5 -4 -10 -8 -10 -4 0 -13 -13 -19 -30 -9 -24 -17
-30 -41 -30 -17 0 -43 -5 -59 -12 -15 -6 -30 -12 -33 -12 -42 -8 -170 -110
-170 -135 0 -5 -6 -16 -13 -23 -17 -17 -59 -98 -51 -98 4 0 2 -6 -4 -12 -10
-13 -30 -79 -38 -128 -3 -14 -7 -32 -9 -40 -17 -62 -26 -305 -14 -375 4 -22
10 -71 14 -110 10 -106 12 -118 26 -164 12 -40 11 -45 -7 -60 -31 -25 -43 -74
-39 -159 3 -69 38 -262 50 -281 2 -5 -17 -8 -43 -9 -95 0 -103 -2 -129 -28
l-26 -26 8 -181 c7 -191 8 -204 20 -437 5 -80 9 -157 9 -172 1 -19 -13 -42
-51 -81 -46 -48 -133 -187 -117 -187 4 0 2 -6 -4 -12 -8 -11 -28 -71 -38 -113
-1 -5 -7 -30 -14 -55 -12 -45 -17 -65 -26 -109 -3 -14 -7 -28 -9 -32 -9 -13
20 -16 174 -18 85 -1 158 -4 163 -7 11 -7 2165 -7 2177 0 4 3 85 6 180 7 197
2 181 -10 151 119 -56 234 -106 338 -211 437 -27 25 -35 40 -33 61 2 15 6 90
9 167 3 77 7 163 10 190 6 72 19 343 18 389 -2 63 -34 87 -117 88 l-68 1 6 31
c3 17 8 42 11 56 3 14 7 36 10 50 3 14 7 36 10 50 3 14 8 61 10 105 4 84 -15
155 -40 155 -10 0 -9 13 5 58 48 157 60 515 21 675 -22 94 -87 257 -102 257
-5 0 -9 6 -9 13 0 33 -117 169 -210 246 -14 11 -30 25 -37 31 -7 5 -17 10 -23
10 -5 0 -10 5 -10 10 0 6 -5 10 -11 10 -6 0 -24 9 -40 21 -16 11 -29 18 -29
15 0 -3 -21 6 -47 21 -27 15 -48 25 -48 24 0 -1 -13 3 -30 9 -16 7 -34 13 -40
14 -5 2 -30 8 -55 15 -25 7 -54 15 -65 17 -11 2 -31 6 -45 10 -26 6 -246 14
-252 9z"/>
</g>
</svg>
